<svg width="29" height="29" viewBox="0 0 29 29" fill="none" xmlns="http://www.w3.org/2000/svg">
<path d="M28.1252 22.6128L19.7544 14.2129L23.0562 10.8995L23.0562 10.8995L25.0094 8.93952L25.0094 8.93947L27.8461 6.09288C28.6367 5.29953 28.6367 3.99288 27.8461 3.19953L25.4744 0.819538C25.1024 0.446242 24.5908 0.212891 24.0328 0.212891C23.4747 0.212891 22.9632 0.446242 22.5912 0.819538L19.7544 3.66618L17.8012 5.62618L14.4994 8.93952L6.22155 0.63289C5.70998 0.119539 4.77993 0.119539 4.26836 0.63289L0.966575 3.94623C0.408521 4.45959 0.408521 5.34623 0.966575 5.90623L1.94317 6.88623L4.59393 9.54622L7.19814 12.1595C7.19814 12.1595 7.19814 12.1595 7.1982 12.1596L9.24436 14.2129L1.77897 21.7043C1.63978 21.7659 1.56474 21.8918 1.52463 22.0528L0.548035 27.6528C0.548035 27.8395 0.594521 27.9795 0.687548 28.0728C0.780521 28.1662 0.873548 28.2128 1.01306 28.2128C1.05955 28.2128 1.05955 28.2128 1.10609 28.2128L6.47109 27.2175C6.5082 27.2274 6.54826 27.2328 6.5936 27.2328C6.73312 27.2328 6.87263 27.1862 6.91912 27.0928L14.4993 19.4862L15.1039 20.0929C15.1039 20.0929 15.1039 20.0929 15.1039 20.0929L15.104 20.093L16.406 21.3996C16.406 21.3996 16.406 21.3996 16.4061 21.3996L16.4061 21.3997L22.8702 27.8862C23.1027 28.1196 23.3818 28.2129 23.6608 28.2129C23.9398 28.2129 24.2188 28.1195 24.4048 27.8862L28.1252 24.1529C28.5437 23.7328 28.5437 23.0328 28.1252 22.6128ZM6.5936 26.0662L4.96642 24.4333L20.4282 8.96238L22.0331 10.5729L6.5936 26.0662ZM23.2422 1.47289C23.6607 1.05289 24.4048 1.05289 24.8233 1.47289L27.1951 3.85288C27.6136 4.27288 27.6136 5.01953 27.1951 5.43953L24.6838 7.95952L20.731 3.99288L23.2422 1.47289ZM20.0799 4.64623L22.0564 6.62958L24.0328 8.61287L22.7307 9.91952L18.7778 5.95288L20.0799 4.64623ZM9.50012 13.1629L10.5 12.1595C10.686 11.9729 10.686 11.6929 10.5 11.5062C10.314 11.3195 10.035 11.3195 9.8489 11.5062L8.84903 12.5095L8.17474 11.8329L9.80241 10.1995C9.98841 10.0129 9.98841 9.73287 9.80241 9.54617C9.61641 9.35947 9.33739 9.35952 9.15133 9.54617L7.52366 11.1795L6.87257 10.5262L7.84917 9.54617C8.03517 9.35952 8.03517 9.07952 7.84917 8.89282C7.66317 8.70612 7.38414 8.70617 7.19809 8.89282L6.22149 9.87282L5.57041 9.21947L7.19809 7.58612C7.38409 7.39947 7.38409 7.11947 7.19809 6.93277C7.01209 6.74607 6.73306 6.74612 6.54701 6.93277L4.91944 8.56623L4.22187 7.86623L5.19847 6.88623C5.38447 6.69958 5.38447 6.41958 5.19847 6.23288C5.01247 6.04618 4.73344 6.04623 4.54738 6.23288L3.57079 7.21288L2.91971 6.55953L4.54738 4.92618C4.73339 4.73953 4.73339 4.45953 4.54738 4.27283C4.36139 4.08613 4.08236 4.08618 3.8963 4.27283L2.26868 5.90623L1.6176 5.25288C1.4316 5.06623 1.4316 4.78623 1.6176 4.59953L4.91944 1.28624C5.01247 1.19289 5.10544 1.14624 5.24495 1.14624C5.33798 1.14624 5.47749 1.19289 5.57047 1.28624L13.8483 9.59287L9.89544 13.5595L9.50012 13.1629ZM18.1267 6.65288L19.7539 8.28573L4.29212 23.7567L2.68722 22.1462L18.1267 6.65288ZM2.31517 23.0795L3.84088 24.6105C3.8641 24.6638 3.89794 24.7144 3.94285 24.7595L5.62387 26.4463L1.61766 27.1394L2.31517 23.0795ZM27.4741 23.4995L23.7538 27.2328C23.7073 27.2795 23.5678 27.2795 23.5212 27.2328L18.708 22.4028L20.3589 20.7462C20.5449 20.5596 20.5449 20.2796 20.3589 20.0929C20.1729 19.9062 19.8939 19.9062 19.7078 20.0929L18.0569 21.7495L17.3826 21.0729L18.3592 20.0929C18.5452 19.9062 18.5452 19.6262 18.3592 19.4395C18.1732 19.2529 17.8942 19.2529 17.7081 19.4395L16.7315 20.4195L16.0805 19.7661L17.7081 18.1328C17.8941 17.9462 17.8941 17.6662 17.7081 17.4795C17.5221 17.2928 17.2431 17.2928 17.0571 17.4795L15.4294 19.1129L15.1504 18.8329L19.1033 14.8662L27.4741 23.2662C27.5206 23.3128 27.5206 23.4528 27.4741 23.4995Z" fill="#E3B873"/>
</svg>
