<svg width="29" height="28" viewBox="0 0 29 28" fill="none" xmlns="http://www.w3.org/2000/svg">
<path d="M26.8694 21.1434C26.2899 20.7342 25.6211 20.5143 24.9456 20.4785C22.3995 18.8053 20.7316 17.5495 19.7578 16.5724L16.7666 13.5707L18.5818 11.5318C18.9258 11.7266 19.2953 11.855 19.6648 11.908C19.9437 11.9546 20.1296 11.9546 20.3156 11.9546C20.6875 11.9546 20.7804 11.9546 21.1523 12.2811C20.9663 12.421 20.8734 12.6543 20.8734 12.8874C20.8734 13.1206 20.9663 13.4005 21.1523 13.5871L22.7791 15.2196C23.0115 15.4995 23.3833 15.6394 23.7552 15.6394C24.1271 15.6394 24.4989 15.4995 24.7313 15.173L28.0315 11.8613C28.3104 11.6281 28.4498 11.255 28.4498 10.8818C28.4498 10.5086 28.3104 10.1822 28.0315 9.9023L26.4046 8.26978C26.2187 8.08322 25.9863 7.98992 25.7539 7.98992C25.5215 7.98992 25.2891 8.12985 25.1031 8.26978C24.7313 7.94329 24.7313 7.84999 24.7313 7.47682C24.7313 7.29027 24.7313 7.05703 24.6383 6.77718C24.5453 6.12415 24.2199 5.47119 23.7086 4.95809L22.0353 3.27894C21.0592 2.29943 20.5944 1.83302 19.3394 1.2733C16.6435 0.013935 13.9011 0.247169 9.90375 2.06625C9.67132 2.15956 9.5784 2.34611 9.62486 2.57935C9.67132 2.81258 9.85728 2.95251 10.0897 2.95251H10.6939C12.7391 2.95251 13.8081 2.95251 15.6674 4.81822C16.4815 5.63517 16.505 6.88781 15.7756 7.80943C15.6772 7.8243 15.6024 7.86857 15.5279 7.94329L13.4632 10.2558L11.9024 8.68962C10.1869 6.96816 8.98032 5.33946 8.05166 3.52589C8.0029 2.60821 7.63594 1.74961 6.97544 1.0868C6.18529 0.293903 5.06975 -0.0792601 3.9542 0.0140444C3.81476 0.0606694 3.67531 0.153974 3.62885 0.247278C3.53587 0.387208 3.53587 0.573762 3.62885 0.713692L4.9303 3.04587C4.65142 3.65221 4.00066 4.02537 3.34996 3.97875L2.00199 1.73982C1.95553 1.59989 1.76957 1.50659 1.63013 1.50659C1.49068 1.45996 1.35124 1.55321 1.25826 1.69314C0.142712 3.3723 0.561042 5.61117 2.23436 6.77723C2.81087 7.19046 3.46037 7.42025 4.11815 7.46737C4.12551 7.47048 4.13243 7.47431 4.14005 7.47688C5.95282 8.40976 7.57967 9.62245 9.29945 11.3483L10.9994 13.0154L1.11887 24.0819C0.747002 24.4551 0.561096 24.9681 0.561096 25.4812C0.561096 25.9943 0.747002 26.4607 1.11887 26.8339L1.76962 27.4869C2.14149 27.8134 2.60628 28 3.07108 28C3.53587 28 4.04718 27.8134 4.41905 27.4403L14.2883 16.3545L17.1549 19.2311C18.13 20.2096 19.3836 21.9332 21.0546 24.448C21.1145 25.3457 21.4806 26.1839 22.1284 26.8339C22.8256 27.5335 23.7552 27.9067 24.7313 27.9067C24.8708 27.9067 25.0102 27.9067 25.1032 27.9067C25.2426 27.9067 25.3821 27.8134 25.475 27.6735C25.568 27.5335 25.568 27.347 25.475 27.207L24.1271 24.9216C24.4524 24.3152 25.0567 23.942 25.7539 23.9887L27.0554 26.2275C27.1019 26.3675 27.2878 26.4608 27.4273 26.4608C27.6132 26.4142 27.7526 26.3675 27.8456 26.2275C28.9611 24.5483 28.4962 22.3095 26.8694 21.1434ZM16.2717 4.072C14.7843 2.62608 13.6688 2.15961 12.4138 2.01968C15.0632 1.18011 17.0154 1.22673 18.9676 2.11299C20.0832 2.5794 20.455 2.95256 21.4311 3.93207L23.1045 5.61122C23.4763 5.98439 23.7087 6.4508 23.7552 6.91721C23.8017 7.15045 23.8017 7.337 23.8017 7.47693C23.8017 7.99003 23.8481 8.36313 24.4059 8.92285C24.5918 9.10941 24.8707 9.20271 25.1031 9.20271C25.382 9.20271 25.6144 9.10941 25.7539 8.92285L27.3807 10.5554C27.4737 10.6487 27.5202 10.7419 27.5202 10.8819C27.5202 11.0218 27.4737 11.1151 27.3807 11.2084L24.0806 14.52C23.8947 14.7066 23.6158 14.7066 23.4298 14.52L21.8029 12.8875C21.9889 12.7476 22.0818 12.5143 22.0354 12.2345C22.0354 12.0012 21.9424 11.7214 21.7565 11.5348C21.1987 10.9751 20.8268 10.9285 20.3156 10.9285C20.1761 10.9285 19.9902 10.9285 19.7578 10.8819C19.2465 10.8352 18.8282 10.602 18.4564 10.2288L16.4577 8.2232C17.4802 6.96389 17.3873 5.19144 16.2717 4.072ZM1.67664 2.95256L2.65275 4.63172C2.74573 4.77165 2.88517 4.86495 3.02461 4.86495H3.25704C4.32612 4.91158 5.30222 4.35186 5.76702 3.41903L5.86 3.1858C5.95298 3.04587 5.95298 2.90594 5.86 2.76601L4.83738 0.993551C5.39515 1.08686 5.90646 1.36671 6.32479 1.7865C6.80402 2.30747 7.11085 2.96634 7.12899 3.67408C7.12 3.70999 7.11493 3.74863 7.11493 3.7922C7.11493 4.00821 7.08895 4.21893 7.04085 4.42204C6.86552 5.09742 6.44506 5.68627 5.85994 6.07775C4.9303 6.68409 3.67531 6.68409 2.74573 6.03112C1.76962 5.33137 1.35129 4.072 1.67664 2.95256ZM9.95026 10.6953C8.55583 9.24939 7.1614 8.12996 5.67398 7.2437C5.90641 7.15039 6.18529 7.01046 6.41766 6.87054C7.11488 6.40412 7.57967 5.79772 7.85856 5.05145C8.74168 6.54405 9.85723 7.94335 11.2517 9.34264L12.8482 10.9447L11.5962 12.347L9.95026 10.6953ZM3.76829 26.7406C3.39643 27.1137 2.79219 27.1604 2.42032 26.7872L1.76957 26.1809C1.58366 25.9943 1.49068 25.7611 1.49068 25.5278C1.49068 25.248 1.58366 25.0147 1.81603 24.7816L2.07929 24.486L2.74567 25.1547C2.83865 25.248 2.93158 25.2947 3.07102 25.2947C3.21047 25.2947 3.30345 25.248 3.39637 25.1547C3.58228 24.9682 3.58228 24.6883 3.39637 24.5017L2.69349 23.7964L3.30775 23.1067L4.04713 23.8487C4.14011 23.942 4.23303 23.9886 4.37248 23.9886C4.51192 23.9886 4.6049 23.942 4.69782 23.8487C4.88373 23.6621 4.88373 23.3823 4.69782 23.1957L3.92206 22.4171L15.8779 8.99413L17.8301 10.9531L15.912 13.1067C15.8572 13.13 15.8087 13.1656 15.7604 13.214L13.9012 15.313C13.8481 15.3663 13.8107 15.4273 13.788 15.4914L3.76829 26.7406ZM14.9243 15.6401L16.1963 14.2113L19.2 17.2254C20.0366 18.1116 21.4775 19.231 23.5692 20.6303C23.2903 20.7236 23.0114 20.8635 22.7325 21.0501C22.1559 21.4118 21.7474 21.9139 21.4628 22.4691C21.4586 22.477 21.4548 22.4851 21.4506 22.4931C21.4338 22.5265 21.4173 22.56 21.4013 22.5938C21.3784 22.6416 21.3566 22.69 21.3357 22.7389C21.3214 22.7719 21.3072 22.805 21.2938 22.8383C21.2919 22.8431 21.29 22.8479 21.2881 22.8527C21.2734 22.8892 21.2589 22.9258 21.2452 22.9625C20.9812 22.5739 20.7272 22.2072 20.4829 21.8617L21.1057 21.2367C21.2916 21.0501 21.2916 20.7703 21.1057 20.5837C20.9198 20.3971 20.6409 20.3971 20.455 20.5837L19.9368 21.1037C19.7437 20.8406 19.5571 20.5925 19.3771 20.3593L19.8043 19.9307C19.9902 19.7441 19.9902 19.4642 19.8043 19.2776C19.6184 19.0911 19.3395 19.0911 19.1535 19.2776L18.7987 19.6337C18.4571 19.2205 18.142 18.8689 17.8521 18.578L14.9243 15.6401ZM27.3807 24.9681L26.4046 23.289C26.3116 23.149 26.1722 23.0557 26.0327 23.0557H25.8003C24.7312 22.9624 23.7551 23.5688 23.2903 24.5017L23.1973 24.7349C23.1043 24.8748 23.1043 25.0147 23.1973 25.1547L24.2199 26.9271C23.6621 26.8338 23.1508 26.554 22.7325 26.1342C22.2623 25.6231 21.9585 24.9792 21.9299 24.2868C21.9378 24.2527 21.9423 24.2161 21.9423 24.1752C21.9423 23.5843 22.1292 23.0311 22.455 22.5625C22.6552 22.2829 22.9055 22.0382 23.1973 21.843C23.6621 21.5166 24.1734 21.3766 24.7312 21.3766C25.2889 21.3766 25.8467 21.5632 26.3115 21.8897C27.2878 22.5893 27.7061 23.8487 27.3807 24.9681Z" fill="#E3B873"/>
</svg>
